<svg width="18" height="18" viewBox="0 0 18 18" fill="none" xmlns="http://www.w3.org/2000/svg">
<path d="M10.3723 14.25C10.2602 14.2503 10.1495 14.2256 10.0483 14.1776C9.94703 14.1296 9.85785 14.0595 9.78726 13.9725L6.16476 9.47246C6.05445 9.33826 5.99414 9.16993 5.99414 8.99621C5.99414 8.82249 6.05445 8.65416 6.16476 8.51996L9.91476 4.01996C10.0421 3.8668 10.225 3.77048 10.4233 3.7522C10.6216 3.73391 10.8191 3.79516 10.9723 3.92246C11.1254 4.04977 11.2217 4.2327 11.24 4.43102C11.2583 4.62934 11.1971 4.8268 11.0698 4.97996L7.71726 8.99996L10.9573 13.02C11.049 13.1301 11.1072 13.2641 11.1251 13.4063C11.143 13.5484 11.1199 13.6927 11.0583 13.8221C10.9968 13.9515 10.8995 14.0606 10.7779 14.1364C10.6563 14.2122 10.5155 14.2516 10.3723 14.25Z" fill="#919191"/>
</svg>
