<svg width="64" height="64" viewBox="0 0 64 64" fill="none" xmlns="http://www.w3.org/2000/svg">
<path d="M56 32C56 36.7468 54.5924 41.3869 51.9553 45.3337C49.3181 49.2805 45.5698 52.3566 41.1844 54.1731C36.799 55.9896 31.9734 56.4649 27.3178 55.5388C22.6623 54.6128 18.3859 52.327 15.0294 48.9706C11.673 45.6141 9.38721 41.3377 8.46116 36.6822C7.53512 32.0266 8.0104 27.201 9.8269 22.8156C11.6434 18.4302 14.7195 14.6819 18.6663 12.0447C22.6131 9.40758 27.2533 8 32 8C38.3652 8 44.4697 10.5286 48.9706 15.0294C53.4714 19.5303 56 25.6348 56 32Z" stroke="white" stroke-width="3" stroke-linecap="round" stroke-linejoin="round"/>
<path d="M40.4245 21.8744L20.5245 30.8869C20.2528 31.0318 20.0338 31.2587 19.8986 31.5353C19.7633 31.8119 19.7189 32.1242 19.7715 32.4275C19.8242 32.7309 19.9712 33.0099 20.1917 33.2248C20.4122 33.4397 20.6949 33.5796 20.9995 33.6244L28.787 35.1994L30.3745 42.9994C30.4174 43.3049 30.5557 43.5891 30.7698 43.8112C30.9839 44.0333 31.2627 44.1821 31.5665 44.2362C31.8702 44.2902 32.1832 44.2469 32.4608 44.1123C32.7384 43.9778 32.9664 43.7589 33.112 43.4869L42.1245 23.5744C42.2566 23.3369 42.3077 23.0629 42.2701 22.7937C42.2325 22.5246 42.1082 22.2751 41.916 22.0829C41.7239 21.8908 41.4743 21.7665 41.2052 21.7288C40.9361 21.6912 40.662 21.7423 40.4245 21.8744V21.8744Z" stroke="white" stroke-width="3" stroke-linecap="round" stroke-linejoin="round"/>
</svg>
